<svg width="47" height="47" viewBox="0 0 47 47" fill="none" xmlns="http://www.w3.org/2000/svg">
<path d="M23.4937 11.4422C16.8212 11.4422 11.4361 16.8274 11.4361 23.5C11.4361 30.1726 16.8212 35.5578 23.4937 35.5578C30.1662 35.5578 35.5512 30.1726 35.5512 23.5C35.5512 16.8274 30.1662 11.4422 23.4937 11.4422ZM23.4937 31.3367C19.1786 31.3367 15.6572 27.8152 15.6572 23.5C15.6572 19.1848 19.1786 15.6633 23.4937 15.6633C27.8088 15.6633 31.3302 19.1848 31.3302 23.5C31.3302 27.8152 27.8088 31.3367 23.4937 31.3367ZM36.0451 8.13825C34.4872 8.13825 33.2291 9.39635 33.2291 10.9543C33.2291 12.5122 34.4872 13.7703 36.0451 13.7703C37.603 13.7703 38.861 12.5181 38.861 10.9543C38.8615 10.5843 38.789 10.2179 38.6476 9.87608C38.5063 9.53421 38.2989 9.22359 38.0373 8.96201C37.7757 8.70042 37.4651 8.49301 37.1232 8.35166C36.7814 8.2103 36.415 8.13778 36.0451 8.13825ZM46.9974 23.5C46.9974 20.2548 47.0268 17.039 46.8445 13.7997C46.6623 10.0372 45.804 6.6979 43.0527 3.94654C40.2955 1.1893 36.9622 0.33685 33.1997 0.154602C29.9546 -0.0276463 26.7388 0.00174867 23.4996 0.00174867C20.2544 0.00174867 17.0387 -0.0276463 13.7994 0.154602C10.037 0.33685 6.69777 1.19518 3.94647 3.94654C1.18928 6.70378 0.336844 10.0372 0.154599 13.7997C-0.0276458 17.0449 0.00174863 20.2607 0.00174863 23.5C0.00174863 26.7393 -0.0276458 29.961 0.154599 33.2003C0.336844 36.9628 1.19516 40.3021 3.94647 43.0535C6.70365 45.8107 10.037 46.6631 13.7994 46.8454C17.0446 47.0276 20.2603 46.9983 23.4996 46.9983C26.7447 46.9983 29.9604 47.0276 33.1997 46.8454C36.9622 46.6631 40.3014 45.8048 43.0527 43.0535C45.8098 40.2962 46.6623 36.9628 46.8445 33.2003C47.0327 29.961 46.9974 26.7452 46.9974 23.5ZM41.824 37.3626C41.3948 38.4326 40.8775 39.2321 40.0486 40.0552C39.2196 40.8841 38.426 41.4015 37.356 41.8306C34.2638 43.0593 26.9211 42.783 23.4937 42.783C20.0663 42.783 12.7177 43.0593 9.62545 41.8365C8.55549 41.4074 7.75597 40.89 6.93293 40.0611C6.10401 39.2321 5.58667 38.4385 5.15751 37.3685C3.93471 34.2703 4.21101 26.9274 4.21101 23.5C4.21101 20.0726 3.93471 12.7238 5.15751 9.63151C5.58667 8.56153 6.10401 7.76199 6.93293 6.93894C7.76185 6.11588 8.55549 5.59265 9.62545 5.16349C12.7177 3.94066 20.0663 4.21697 23.4937 4.21697C26.9211 4.21697 34.2696 3.94066 37.3619 5.16349C38.4319 5.59265 39.2314 6.11 40.0544 6.93894C40.8834 7.76787 41.4007 8.56153 41.8299 9.63151C43.0527 12.7238 42.7764 20.0726 42.7764 23.5C42.7764 26.9274 43.0527 34.2703 41.824 37.3626Z" fill="#8EB8E5"/>
</svg>
