<svg width="324" height="262" viewBox="0 0 324 262" fill="none" xmlns="http://www.w3.org/2000/svg">
<path d="M292.13 2.30042C308.148 49.1251 345.001 140.166 257.811 149.399C234.424 151.876 212.528 151.567 199.02 131.729C188.097 115.686 211.442 104.51 226.913 112.463C246.836 122.705 259.425 137.807 267.212 160.642C273.917 180.305 277.279 194.852 267.655 213.849C251.017 246.692 212.31 251.486 173.961 247.8C144.69 244.986 125.598 242.783 103.686 233.625C100.13 232.138 78.0492 221.856 78.6439 222.521" stroke="white" stroke-width="4" stroke-linecap="round"/>
<path d="M77.9374 222.471L77.73 223.043L78.0056 223.626L94.0739 257.626L92.1713 259.718L6.02392 221.254L87.8741 186.981L90.0299 189.174L77.9374 222.471Z" stroke="white" stroke-width="3"/>
</svg>
