<svg width="1512" height="266" viewBox="0 0 1512 266" fill="none" xmlns="http://www.w3.org/2000/svg">
<path d="M-4.88151 257.923C8.52134 192.127 36.3945 126.914 81.1102 85.2817C130.333 39.5741 195.094 33.6059 248.468 72.1808C297.216 107.408 333.036 165.052 384.038 196.057C397.204 204.063 411.674 210.614 426.5 210.177C441.327 209.74 452.713 203.044 463.744 193.146C474.774 183.248 485.094 170.292 495.531 158.501C505.969 146.71 519.727 132.882 533.012 121.819C582.472 80.4781 639.997 56.3141 697.76 38.9918C727.768 29.9667 759.793 23.4163 790.275 33.4603C820.758 43.5044 843.768 72.9086 866.66 99.5472C909.833 149.622 963.682 183.393 1023.22 190.235C1082.77 197.076 1085.14 188.925 1112.54 170.001C1137.92 152.242 1159.03 126.622 1180.62 102.895C1222.96 56.3142 1272.42 22.5429 1329.71 14.9734C1383.68 7.84072 1438.24 23.9985 1484.38 58.7888C1496.48 67.9594 1507.86 78.149 1518.66 89.5031C1523.87 94.8891 1531.46 85.7184 1526.25 80.1869C1484.02 36.0805 1432.43 7.25846 1376.92 1.14469C1323.42 -4.67794 1269.22 11.9166 1223.44 46.2701C1197.82 65.4848 1176.11 90.3765 1153.93 114.832C1130.57 140.451 1105.78 165.634 1074.46 174.368C1043.51 182.956 1009.82 177.57 979.813 166.799C949.686 156.027 921.339 137.831 896.668 114.104C871.997 90.3765 852.189 59.371 825.621 38.4095C799.052 17.4481 768.332 12.79 737.969 16.7203C708.079 20.6505 678.782 30.8401 650.079 41.612C621.376 52.3839 594.095 65.0481 567.764 81.497C540.01 98.8194 514.034 120.218 491.024 145.837C467.777 171.748 445.597 205.374 410.607 194.602C375.617 183.83 356.758 160.976 334.46 138.268C312.517 115.851 291.405 91.8322 267.801 71.8897C244.198 51.9472 217.036 37.5361 187.859 33.897C158.325 30.2579 128.435 37.6817 101.985 53.8395C53.3557 83.535 18.959 141.179 -1.32323 201.734C-7.01648 218.911 -11.6422 236.525 -15.3191 254.429C-18.996 272.334 -6.66065 266.074 -5.00012 257.923H-4.88151Z" fill="#8EB8E5"/>
</svg>
