<svg width="184" height="2233" viewBox="0 0 184 2233" fill="none" xmlns="http://www.w3.org/2000/svg">
<path d="M178.43 16.5917C132.913 35.9657 87.7983 76.2567 58.9976 140.894C27.3772 212.046 23.2484 305.658 49.9344 382.811C74.3043 453.278 114.182 505.056 135.632 578.78C141.17 597.811 145.702 618.728 145.4 640.159C145.098 661.591 140.465 678.05 133.618 693.995C126.77 709.94 117.808 724.856 109.651 739.944C101.494 755.032 91.9272 774.92 84.2738 794.123C55.6745 865.618 38.9579 948.772 26.9744 1032.27C20.7309 1075.65 16.1993 1121.94 23.1478 1166C30.0962 1210.06 50.438 1243.32 68.8664 1276.41C103.508 1338.82 126.871 1416.66 131.604 1502.73C136.337 1588.8 130.697 1592.23 117.606 1631.83C105.321 1668.52 87.597 1699.04 71.1826 1730.25C38.958 1791.45 15.5951 1862.95 10.3586 1945.76C5.42424 2023.77 16.6022 2102.64 40.6699 2169.33C47.0141 2186.82 54.0633 2203.28 61.918 2218.88C65.644 2226.43 59.2998 2237.4 55.4731 2229.85C24.9604 2168.82 5.02144 2094.24 0.791956 2014C-3.23612 1936.67 8.24389 1858.32 32.0095 1792.14C45.3022 1755.11 62.5222 1723.73 79.4401 1691.67C97.1637 1657.89 114.585 1622.06 120.627 1576.8C126.569 1532.05 122.843 1483.36 115.391 1439.98C107.939 1396.43 95.351 1355.45 78.9366 1319.79C62.5222 1284.13 41.0727 1255.5 26.5716 1217.09C12.0705 1178.69 8.84809 1134.28 11.567 1090.39C14.286 1047.18 21.3351 1004.84 28.7871 963.345C36.239 921.854 45.0001 882.42 56.3794 844.358C68.3629 804.238 83.1661 766.69 100.89 733.429C118.815 699.825 142.077 667.763 134.625 617.185C127.173 566.607 111.363 539.346 95.6531 507.113C80.145 475.395 63.5292 444.877 49.733 410.758C35.9369 376.639 25.9674 337.377 23.4498 295.2C20.9323 252.508 26.0681 209.303 37.246 171.069C57.7892 100.774 97.6671 51.0534 139.559 21.7352C151.442 13.5056 163.627 6.81896 176.013 1.50397C188.4 -3.81102 184.069 14.0199 178.43 16.4202L178.43 16.5917Z" fill="#8EB8E5"/>
</svg>
