<svg width="184" height="2233" viewBox="0 0 184 2233" fill="none" xmlns="http://www.w3.org/2000/svg">
<path d="M5.56995 16.6249C51.0872 35.9989 96.2017 76.2899 125.002 140.927C156.623 212.079 160.752 305.692 134.066 382.845C109.696 453.311 69.8177 505.089 48.3682 578.813C42.8296 597.844 38.298 618.761 38.6002 640.193C38.9023 661.624 43.5345 678.083 50.3823 694.028C57.23 709.973 66.1925 724.89 74.3493 739.977C82.5062 755.065 92.0728 774.953 99.7262 794.156C128.326 865.651 145.042 948.805 157.026 1032.3C163.269 1075.68 167.801 1121.97 160.852 1166.03C153.904 1210.1 133.562 1243.36 115.134 1276.45C80.4921 1338.86 57.1293 1416.69 52.3963 1502.76C47.6633 1588.83 53.3026 1592.26 66.3939 1631.87C78.6795 1668.56 96.403 1699.07 112.817 1730.28C145.042 1791.49 168.405 1862.98 173.641 1945.79C178.576 2023.8 167.398 2102.67 143.33 2169.37C136.986 2186.85 129.937 2203.31 122.082 2218.92C118.356 2226.46 124.7 2237.43 128.527 2229.89C159.04 2168.85 178.979 2094.27 183.208 2014.03C187.236 1936.71 175.756 1858.35 151.99 1792.17C138.698 1755.14 121.478 1723.76 104.56 1691.7C86.8363 1657.93 69.4149 1622.09 63.3728 1576.83C57.4314 1532.08 61.1573 1483.39 68.6093 1440.01C76.0612 1396.46 88.649 1355.49 105.063 1319.83C121.478 1284.16 142.927 1255.53 157.428 1217.13C171.929 1178.72 175.152 1134.31 172.433 1090.42C169.714 1047.22 162.665 1004.87 155.213 963.378C147.761 921.887 139 882.453 127.621 844.391C115.637 804.271 100.834 766.724 83.1104 733.462C65.1854 699.858 41.9233 667.796 49.3752 617.218C56.8272 566.64 72.6374 539.379 88.3469 507.147C103.855 475.428 120.471 444.91 134.267 410.791C148.063 376.672 158.033 337.41 160.55 295.233C163.068 252.542 157.932 209.336 146.754 171.102C126.211 100.807 86.3329 51.0866 44.4409 21.7684C32.558 13.5388 20.3732 6.85216 7.98682 1.53717C-4.39952 -3.77781 -0.0693669 14.0531 5.56995 16.4534L5.56995 16.6249Z" fill="#8EB8E5"/>
</svg>
