<svg width="36" height="36" viewBox="0 0 36 36" fill="none" xmlns="http://www.w3.org/2000/svg">
<path d="M8.35656 11.8304C7.92681 8.99994 9.92256 6.45744 12.9713 5.52594C13.5123 5.36165 14.0956 5.40925 14.6029 5.65911C15.1101 5.90897 15.5033 6.34237 15.7028 6.87144L16.6816 9.48144C16.8391 9.90132 16.8676 10.3587 16.7634 10.7949C16.6591 11.2311 16.4269 11.6262 16.0966 11.9294L13.1851 14.5957C13.0414 14.7273 12.9343 14.8939 12.8743 15.0793C12.8144 15.2646 12.8036 15.4624 12.8431 15.6532L12.8701 15.7702L12.9398 16.0627C13.3028 17.4836 13.8545 18.8495 14.5801 20.1239C15.3723 21.4771 16.3543 22.7099 17.4961 23.7847L17.5861 23.8657C17.7314 23.9947 17.9077 24.0839 18.0978 24.1245C18.2878 24.1651 18.4852 24.1558 18.6706 24.0974L22.4348 22.9117C22.8626 22.7774 23.3208 22.7739 23.7505 22.9018C24.1803 23.0297 24.562 23.2831 24.8468 23.6294L26.6288 25.7917C27.3713 26.6917 27.2813 28.0147 26.4286 28.8089C24.0953 30.9847 20.8868 31.4302 18.6548 29.6369C15.9177 27.4312 13.6111 24.7394 11.8508 21.6967C10.0733 18.658 8.88916 15.3103 8.35656 11.8304ZM15.2011 15.8017L17.6131 13.5877C18.2742 12.9814 18.739 12.1913 18.9479 11.319C19.1568 10.4466 19.1002 9.53167 18.7853 8.69169L17.8088 6.08169C17.4082 5.01693 16.6173 4.14458 15.5968 3.64184C14.5763 3.1391 13.4026 3.04368 12.3143 3.37494C8.52756 4.53369 5.48781 7.92894 6.13131 12.1702C6.58131 15.1312 7.61856 18.8977 9.90681 22.8307C11.8061 26.1115 14.2942 29.0138 17.2463 31.3919C20.5943 34.0807 25.0628 33.1627 27.9653 30.4582C28.7958 29.6849 29.2999 28.6238 29.3748 27.4915C29.4496 26.3592 29.0896 25.2411 28.3681 24.3652L26.5861 22.2007C26.016 21.5088 25.2522 21.0029 24.3928 20.7479C23.5333 20.493 22.6172 20.5006 21.7621 20.7697L18.6368 21.7529C17.8298 20.921 17.123 19.9975 16.5308 19.0012C15.9593 17.9937 15.5135 16.9199 15.2033 15.8039" fill="white"/>
</svg>
